<?xml version="1.0" encoding="UTF-8" standalone="no"?>
<!-- Created with Inkscape (http://www.inkscape.org/) -->

<svg
   width="210mm"
   height="297mm"
   viewBox="0 0 210 297"
   version="1.1"
   id="svg1"
   xml:space="preserve"
   xmlns="http://www.w3.org/2000/svg"
   xmlns:svg="http://www.w3.org/2000/svg"><defs
     id="defs1" /><g
     id="layer1"><g
       style="fill:none"
       id="g1"
       transform="matrix(0.26458333,0,0,0.26458333,-31.617707,72.495834)">
<path
         d="M 518.013,32 V 526"
         stroke="#000000"
         stroke-width="0.5"
         stroke-dasharray="1, 1"
         id="path145" />
<path
         d="m 240.013,282.5 h 551.3"
         stroke="#000000"
         stroke-width="0.5"
         stroke-dasharray="1, 1"
         id="path146" />
<g id="tooth-51" data-tooth="51">
  <path d="m 478.98192,214.31542 h -10.7 v 11 h 10.7 z" stroke="#000000" stroke-width="0.5" data-tooth="51" data-face="incisal" id="tooth-51-incisal"/>
  <path d="m 465.013,202.3 c 3.17,-1.058 5.157,1.024 8.5,1 3.148,-0.023 4.93,-1.701 8,-1 2.128,0.486 5,2.5 5,2.5 l -8,9.5 h -10 l -7.5,-9.5 c 0,0 2.252,-1.917 4,-2.5 z" stroke="#000000" stroke-width="0.5" stroke-linejoin="round" data-tooth="51" data-face="vestibular" id="tooth-51-vestibular"/>
  <path d="m 491.013,211.3 c 1.058,3.17 -1.024,5.158 -1,8.5 0.023,3.148 1.7,4.93 1,8 -0.486,2.128 -4.5,7 -4.5,7 l -7.5,-9 v -12 l 7.5,-9 c 0,0 3.917,4.753 4.5,6.5 z" stroke="#000000" stroke-width="0.5" stroke-linejoin="round" data-tooth="51" data-face="mesial" id="tooth-51-mesial"/>
  <path d="m 465.013,237.3 c 3.17,1.058 5.157,-1.024 8.5,-1 3.148,0.023 4.93,1.701 8,1 2.128,-0.486 5,-2.5 5,-2.5 l -8,-9.5 h -10 l -7.5,9.5 c 0,0 2.252,1.917 4,2.5 z" stroke="#000000" stroke-width="0.5" stroke-linejoin="round" data-tooth="51" data-face="palatina" id="tooth-51-palatina"/>
  <path d="m 456.313,211.8 c -1.058,3.17 1.024,5.158 1,8.5 -0.023,3.148 -1.701,4.93 -1,8 0.486,2.128 4.7,6.5 4.7,6.5 l 7.3,-9 v -11.5 l -7.3,-9.5 c 0,0 -4.117,5.253 -4.7,7 z" stroke="#000000" stroke-width="0.5" stroke-linejoin="round" data-tooth="51" data-face="distal" id="tooth-51-distal"/>
  <path d="m 460.179,164.564 v 0 c 0,4 -0.5,12.936 2,14.436 2.5,1.5 2.5,1.5 11.5,1.5 v 0 c 9,0 9.5,1.5 12.5,-1 3,-2.5 2.5,-14.936 2.5,-14.936 0,0 0.5,-24.064 -14,-24.564 -14.5,-0.5 -14.5,20.564 -14.5,24.564 z" stroke="#000000" stroke-width="0.5" data-tooth="51" data-part="crown" id="tooth-51-crown"/>
  <path d="m 474.679,90.0035 c -6,0.5 -11,52.9995 -11,52.9995 0,0 2,-5.003 11,-5.003 9,0 10,5.003 10,5.003 0,0 -4,-53.4995 -10,-52.9995 z" stroke="#000000" stroke-width="0.5" data-tooth="51" data-part="root" id="tooth-51-root"/>
</g>
<g id="tooth-52" data-tooth="52">
  <path d="m 425.95256,214.30089 h -10.7 v 11 h 10.7 z" stroke="#000000" stroke-width="0.5" data-tooth="52" data-face="incisal" id="tooth-52-incisal"/>
  <path d="m 412.013,202.3 c 3.17,-1.058 5.157,1.024 8.5,1 3.148,-0.023 4.93,-1.701 8,-1 2.128,0.486 5,2.5 5,2.5 l -8,9.5 h -10 l -7.5,-9.5 c 0,0 2.252,-1.917 4,-2.5 z" stroke="#000000" stroke-width="0.5" stroke-linejoin="round" data-tooth="52" data-face="vestibular" id="tooth-52-vestibular"/>
  <path d="m 438.013,211.3 c 1.058,3.17 -1.024,5.158 -1,8.5 0.023,3.148 1.7,4.93 1,8 -0.486,2.128 -4.5,7 -4.5,7 l -7.5,-9 v -12 l 7.5,-9 c 0,0 3.917,4.753 4.5,6.5 z" stroke="#000000" stroke-width="0.5" stroke-linejoin="round" data-tooth="52" data-face="mesial" id="tooth-52-mesial"/>
  <path d="m 412.013,237.3 c 3.17,1.058 5.157,-1.024 8.5,-1 3.148,0.023 4.93,1.701 8,1 2.128,-0.486 5,-2.5 5,-2.5 l -8,-9.5 h -10 l -7.5,9.5 c 0,0 2.252,1.917 4,2.5 z" stroke="#000000" stroke-width="0.5" stroke-linejoin="round" data-tooth="52" data-face="palatina" id="tooth-52-palatina"/>
  <path d="m 403.313,211.8 c -1.058,3.17 1.024,5.158 1,8.5 -0.023,3.148 -1.701,4.93 -1,8 0.486,2.128 4.7,6.5 4.7,6.5 l 7.3,-9 v -11.5 l -7.3,-9.5 c 0,0 -4.117,5.253 -4.7,7 z" stroke="#000000" stroke-width="0.5" stroke-linejoin="round" data-tooth="52" data-face="distal" id="tooth-52-distal"/>
  <path d="m 408.179,158 c 0.609,-8.536 2.5,-16 12.5,-16 10,0 10.966,8.002 11.5,16 0.6,9 0.5,14 0,21 h -11 -13 c -0.5,-2.5 -0.5,-14 0,-21 z" stroke="#000000" stroke-width="0.5" data-tooth="52" data-part="crown" id="tooth-52-crown"/>
  <path d="m 421.679,90.0034 c -6,0.5 -11,52.9996 -11,52.9996 0,0 2,-3 11,-3 9,0 10,3.997 10,3.997 0,0 -4,-54.4966 -10,-53.9966 z" stroke="#000000" stroke-width="0.5" data-tooth="52" data-part="root" id="tooth-52-root"/>
</g>
<g id="tooth-53" data-tooth="53">
  <path d="m 369.96594,214.29475 h -10.7 v 11 h 10.7 z" stroke="#000000" stroke-width="0.5" data-tooth="53" data-face="incisal" id="tooth-53-incisal"/>
  <path d="m 356.013,202.3 c 3.17,-1.058 5.157,1.024 8.5,1 3.148,-0.023 4.93,-1.701 8,-1 2.128,0.486 5,2.5 5,2.5 l -8,9.5 h -10 l -7.5,-9.5 c 0,0 2.252,-1.917 4,-2.5 z" stroke="#000000" stroke-width="0.5" stroke-linejoin="round" data-tooth="53" data-face="vestibular" id="tooth-53-vestibular"/>
  <path d="m 382.013,211.3 c 1.058,3.17 -1.024,5.158 -1,8.5 0.023,3.148 1.7,4.93 1,8 -0.486,2.128 -4.5,7 -4.5,7 l -7.5,-9 v -12 l 7.5,-9 c 0,0 3.917,4.753 4.5,6.5 z" stroke="#000000" stroke-width="0.5" stroke-linejoin="round" data-tooth="53" data-face="mesial" id="tooth-53-mesial"/>
  <path d="m 356.013,237.3 c 3.17,1.058 5.157,-1.024 8.5,-1 3.148,0.023 4.93,1.701 8,1 2.128,-0.486 5,-2.5 5,-2.5 l -8,-9.5 h -10 l -7.5,9.5 c 0,0 2.252,1.917 4,2.5 z" stroke="#000000" stroke-width="0.5" stroke-linejoin="round" data-tooth="53" data-face="palatina" id="tooth-53-palatina"/>
  <path d="m 347.313,211.8 c -1.058,3.17 1.024,5.158 1,8.5 -0.023,3.148 -1.701,4.93 -1,8 0.486,2.128 4.7,6.5 4.7,6.5 l 7.3,-9 v -11.5 l -7.3,-9.5 c 0,0 -4.117,5.253 -4.7,7 z" stroke="#000000" stroke-width="0.5" stroke-linejoin="round" data-tooth="53" data-face="distal" id="tooth-53-distal"/>
  <path d="M 365.642,141.204 C 364.195,141.278 361.840,141.478 360.239,142.205 C 358.638,142.932 357.257,143.999 356.036,145.567 C 354.816,147.134 353.682,149.189 352.915,151.610 C 352.148,154.032 351.614,157.441 351.434,160.095 C 351.254,162.750 351.454,165.459 351.834,167.540 C 352.214,169.621 352.614,170.768 353.715,172.583 C 354.816,174.397 356.664,176.819 358.438,178.426 C 360.212,180.034 362.827,181.708 364.361,182.229 C 365.896,182.749 366.109,182.389 367.643,181.548 C 369.178,180.708 371.972,178.666 373.567,177.186 C 375.161,175.705 376.335,174.224 377.209,172.663 C 378.083,171.102 378.636,170.468 378.810,167.820 C 378.983,165.172 378.703,159.982 378.250,156.773 C 377.796,153.565 377.176,150.823 376.088,148.569 C 375.001,146.314 372.920,144.379 371.726,143.245 C 370.532,142.111 369.938,142.105 368.924,141.765 C 367.910,141.424 367.090,141.131 365.642,141.204 Z" stroke="#000000" stroke-width="0.5" data-tooth="53" data-part="crown" id="tooth-53-crown"/>
  <path d="m 366.179,90.0035 c -6,0.5 -11,52.9995 -11,52.9995 0,0 2,-3 11,-3 9,0 10,3 10,3 0,0 -4,-53.4995 -10,-52.9995 z" stroke="#000000" stroke-width="0.5" data-tooth="53" data-part="root" id="tooth-53-root"/>
</g>
<g id="tooth-54" data-tooth="54">
  <path d="m 316.94178,214.30902 h -10.7 v 11 h 10.7 z" stroke="#000000" stroke-width="0.5" data-tooth="54" data-face="oclusal" id="tooth-54-oclusal"/>
  <path d="m 303.013,202.3 c 3.17,-1.058 5.157,1.024 8.5,1 3.148,-0.023 4.93,-1.701 8,-1 2.128,0.486 5,2.5 5,2.5 l -8,9.5 h -10 l -7.5,-9.5 c 0,0 2.252,-1.917 4,-2.5 z" stroke="#000000" stroke-width="0.5" stroke-linejoin="round" data-tooth="54" data-face="vestibular" id="tooth-54-vestibular"/>
  <path d="m 329.013,211.3 c 1.058,3.17 -1.024,5.158 -1,8.5 0.023,3.148 1.7,4.93 1,8 -0.486,2.128 -4.5,7 -4.5,7 l -7.5,-9 v -12 l 7.5,-9 c 0,0 3.917,4.753 4.5,6.5 z" stroke="#000000" stroke-width="0.5" stroke-linejoin="round" data-tooth="54" data-face="mesial" id="tooth-54-mesial"/>
  <path d="m 303.013,237.3 c 3.17,1.058 5.157,-1.024 8.5,-1 3.148,0.023 4.93,1.701 8,1 2.128,-0.486 5,-2.5 5,-2.5 l -8,-9.5 h -10 l -7.5,9.5 c 0,0 2.252,1.917 4,2.5 z" stroke="#000000" stroke-width="0.5" stroke-linejoin="round" data-tooth="54" data-face="palatina" id="tooth-54-palatina"/>
  <path d="m 294.313,211.8 c -1.058,3.17 1.024,5.158 1,8.5 -0.023,3.148 -1.701,4.93 -1,8 0.486,2.128 4.7,6.5 4.7,6.5 l 7.3,-9 v -11.5 l -7.3,-9.5 c 0,0 -4.117,5.253 -4.7,7 z" stroke="#000000" stroke-width="0.5" stroke-linejoin="round" data-tooth="54" data-face="distal" id="tooth-54-distal"/>
  <path d="m 310.6225,142.4585 c -19.5,0 -16.5,15.5 -16.5,19.5 0,4 0.334,14.436 2.834,15.936 2.5,1.5 3.666,1.564 12.666,1.564 9,0 10.834,0.936 13.834,-1.564 3,-2.5 2.666,-15.936 2.666,-15.936 0,0 4,-19.5 -15.5,-19.5 z" stroke="#000000" stroke-width="0.5" data-tooth="54" data-part="crown" id="tooth-54-crown"/>
  <path d="m 306.71426,113.35301 c 0.5,5 3,15.5 4.5,15 1.5,-0.5 2,-9.262 2,-17.5 0,-6 -3.5,-17.000203 -6.5,-16.000203 -3,1 -0.5,13.500203 0,18.500203 z" stroke="#000000" stroke-width="0.5" data-tooth="54" data-part="root" id="tooth-54-root-1"/>
  <path d="m 297.01701,111.76126 -0.5,34 c 0,0 3,-5.5 15,-5 12,0.5 13,5 13,5 v -31 c 0,0 -1,-21.500209 -6.5,-17.500209 -3.907,2.841199 -2.5,14.500209 -2.5,14.500209 0,0 1.5,19 -5,19 -7.517,0 -4.709,-36.791809 -11.5,-30 -2,2 -2,11 -2,11 z" stroke="#000000" stroke-width="0.5" data-tooth="54" data-part="root" id="tooth-54-root-2"/>
</g>
<g id="tooth-55" data-tooth="55">
  <path d="m 263.013,214.6 h -10.7 v 11 h 10.7 z" stroke="#000000" stroke-width="0.5" data-tooth="55" data-face="oclusal" id="tooth-55-oclusal"/>
  <path d="m 249.013,202.6 c 3.17,-1.058 5.157,1.024 8.5,1 3.148,-0.023 4.93,-1.701 8,-1 2.128,0.486 5,2.5 5,2.5 l -8,9.5 h -10 l -7.5,-9.5 c 0,0 2.252,-1.917 4,-2.5 z" stroke="#000000" stroke-width="0.5" stroke-linejoin="round" data-tooth="55" data-face="vestibular" id="tooth-55-vestibular"/>
  <path d="m 275.013,211.6 c 1.058,3.17 -1.024,5.158 -1,8.5 0.023,3.148 1.7,4.93 1,8 -0.486,2.128 -4.5,7 -4.5,7 l -7.5,-9 v -12 l 7.5,-9 c 0,0 3.917,4.753 4.5,6.5 z" stroke="#000000" stroke-width="0.5" stroke-linejoin="round" data-tooth="55" data-face="mesial" id="tooth-55-mesial"/>
  <path d="m 249.013,237.6 c 3.17,1.058 5.157,-1.024 8.5,-1 3.148,0.023 4.93,1.701 8,1 2.128,-0.486 5,-2.5 5,-2.5 l -8,-9.5 h -10 l -7.5,9.5 c 0,0 2.252,1.917 4,2.5 z" stroke="#000000" stroke-width="0.5" stroke-linejoin="round" data-tooth="55" data-face="palatina" id="tooth-55-palatina"/>
  <path d="m 240.313,212.1 c -1.058,3.17 1.024,5.158 1,8.5 -0.023,3.148 -1.701,4.93 -1,8 0.486,2.128 4.7,6.5 4.7,6.5 l 7.3,-9 v -11.5 l -7.3,-9.5 c 0,0 -4.117,5.253 -4.7,7 z" stroke="#000000" stroke-width="0.5" stroke-linejoin="round" data-tooth="55" data-face="distal" id="tooth-55-distal"/>
  <path d="m 257.20052,143.24751 c -15.834,-0.936 -16.5,15.5 -16.5,19.5 0,4 -0.166,14.436 2.334,15.936 2.5,1.5 4.166,1.564 13.166,1.564 9,0 8.834,0.936 11.834,-1.564 3,-2.5 3,-15 3,-15 0,0 2,-19.5 -13.834,-20.436 z" stroke="#000000" stroke-width="0.5" data-tooth="55" data-part="crown" id="tooth-55-crown"/>
  <path d="m 252.03269,114.23774 c 0.5,5 3,15.5 4.5,15 1.5,-0.5 2,-9.262 2,-17.5 0,-6 -3.5,-17.000203 -6.5,-16.000203 -3,1 -0.5,13.500203 0,18.500203 z" stroke="#000000" stroke-width="0.5" data-tooth="55" data-part="root" id="tooth-55-root-1"/>
  <path d="m 242.41715,112.76153 -0.5,34 c 0,0 3,-5.5 15,-5 12,0.5 13,5 13,5 v -31 c 0,0 -1,-21.500201 -6.5,-17.500201 -3.907,2.841201 -2.5,14.500201 -2.5,14.500201 0,0 1.5,19 -5,19 -7.517,0 -4.709,-36.791801 -11.5,-30 -2,2 -2,11 -2,11 z" stroke="#000000" stroke-width="0.5" data-tooth="55" data-part="root" id="tooth-55-root-2"/>
</g>
<g id="tooth-61" data-tooth="61">
  <path d="m 558.01208,214.30359 h -10.7 v 11 h 10.7 z" stroke="#000000" stroke-width="0.5" data-tooth="61" data-face="incisal" id="tooth-61-incisal"/>
  <path d="m 544.013,202.3 c 3.17,-1.058 5.157,1.024 8.5,1 3.148,-0.023 4.93,-1.701 8,-1 2.128,0.486 5,2.5 5,2.5 l -8,9.5 h -10 l -7.5,-9.5 c 0,0 2.252,-1.917 4,-2.5 z" stroke="#000000" stroke-width="0.5" stroke-linejoin="round" data-tooth="61" data-face="vestibular" id="tooth-61-vestibular"/>
  <path d="m 570.013,211.3 c 1.058,3.17 -1.024,5.158 -1,8.5 0.023,3.148 1.7,4.93 1,8 -0.486,2.128 -4.5,7 -4.5,7 l -7.5,-9 v -12 l 7.5,-9 c 0,0 3.917,4.753 4.5,6.5 z" stroke="#000000" stroke-width="0.5" stroke-linejoin="round" data-tooth="61" data-face="distal" id="tooth-61-distal"/>
  <path d="m 544.013,237.3 c 3.17,1.058 5.157,-1.024 8.5,-1 3.148,0.023 4.93,1.701 8,1 2.128,-0.486 5,-2.5 5,-2.5 l -8,-9.5 h -10 l -7.5,9.5 c 0,0 2.252,1.917 4,2.5 z" stroke="#000000" stroke-width="0.5" stroke-linejoin="round" data-tooth="61" data-face="palatina" id="tooth-61-palatina"/>
  <path d="m 535.313,211.8 c -1.058,3.17 1.024,5.158 1,8.5 -0.023,3.148 -1.701,4.93 -1,8 0.486,2.128 4.7,6.5 4.7,6.5 l 7.3,-9 v -11.5 l -7.3,-9.5 c 0,0 -4.117,5.253 -4.7,7 z" stroke="#000000" stroke-width="0.5" stroke-linejoin="round" data-tooth="61" data-face="mesial" id="tooth-61-mesial"/>
  <path d="m 567.544,161.564 v 0 c 0,4 0.5,12.936 -2,14.436 -2.5,1.5 -2.5,1.5 -11.5,1.5 v 0 c -9,0 -9.5,1.5 -12.5,-1 -3,-2.5 -2.5,-14.936 -2.5,-14.936 0,0 -0.5,-24.064 14,-24.564 14.5,-0.5 14.5,20.564 14.5,24.564 z" stroke="#000000" stroke-width="0.5" data-tooth="61" data-part="crown" id="tooth-61-crown"/>
  <path d="m 553.044,87.0035 c 6,0.5 11,52.9995 11,52.9995 0,0 -2,-5.003 -11,-5.003 -9,0 -10,5.003 -10,5.003 0,0 4,-53.4995 10,-52.9995 z" stroke="#000000" stroke-width="0.5" data-tooth="61" data-part="root" id="tooth-61-root"/>
</g>
<g id="tooth-62" data-tooth="62">
  <path d="m 613.97856,214.6019 h -10.7 v 11 h 10.7 z" stroke="#000000" stroke-width="0.5" data-tooth="62" data-face="incisal" id="tooth-62-incisal"/>
  <path d="m 600.013,202.6 c 3.17,-1.058 5.157,1.024 8.5,1 3.148,-0.023 4.93,-1.701 8,-1 2.128,0.486 5,2.5 5,2.5 l -8,9.5 h -10 l -7.5,-9.5 c 0,0 2.252,-1.917 4,-2.5 z" stroke="#000000" stroke-width="0.5" stroke-linejoin="round" data-tooth="62" data-face="vestibular" id="tooth-62-vestibular"/>
  <path d="m 626.013,211.6 c 1.058,3.17 -1.024,5.158 -1,8.5 0.023,3.148 1.7,4.93 1,8 -0.486,2.128 -4.5,7 -4.5,7 l -7.5,-9 v -12 l 7.5,-9 c 0,0 3.917,4.753 4.5,6.5 z" stroke="#000000" stroke-width="0.5" stroke-linejoin="round" data-tooth="62" data-face="distal" id="tooth-62-distal"/>
  <path d="m 600.013,237.6 c 3.17,1.058 5.157,-1.024 8.5,-1 3.148,0.023 4.93,1.701 8,1 2.128,-0.486 5,-2.5 5,-2.5 l -8,-9.5 h -10 l -7.5,9.5 c 0,0 2.252,1.917 4,2.5 z" stroke="#000000" stroke-width="0.5" stroke-linejoin="round" data-tooth="62" data-face="palatina" id="tooth-62-palatina"/>
  <path d="m 591.313,212.1 c -1.058,3.17 1.024,5.158 1,8.5 -0.023,3.148 -1.701,4.93 -1,8 0.486,2.128 4.7,6.5 4.7,6.5 l 7.3,-9 v -11.5 l -7.3,-9.5 c 0,0 -4.117,5.253 -4.7,7 z" stroke="#000000" stroke-width="0.5" stroke-linejoin="round" data-tooth="62" data-face="mesial" id="tooth-62-mesial"/>
  <path d="m 619.544,155 c -0.609,-8.536 -2.5,-16 -12.5,-16 -10,0 -10.967,8.002 -11.5,16 -0.6,9 -0.5,14 0,21 h 11 13 c 0.5,-2.5 0.5,-14 0,-21 z" stroke="#000000" stroke-width="0.5" data-tooth="62" data-part="crown" id="tooth-62-crown"/>
  <path d="m 606.044,87.0034 c 6,0.5 11,52.9996 11,52.9996 0,0 -2,-3 -11,-3 -9,0 -10,3.997 -10,3.997 0,0 4,-54.4966 10,-53.9966 z" stroke="#000000" stroke-width="0.5" data-tooth="62" data-part="root" id="tooth-62-root"/>
</g>
<g id="tooth-63" data-tooth="63">
  <path d="m 670.97412,214.60289 h -10.7 v 11 h 10.7 z" stroke="#000000" stroke-width="0.5" data-tooth="63" data-face="incisal" id="tooth-63-incisal"/>
  <path d="m 657.013,202.6 c 3.17,-1.058 5.157,1.024 8.5,1 3.148,-0.023 4.93,-1.701 8,-1 2.128,0.486 5,2.5 5,2.5 l -8,9.5 h -10 l -7.5,-9.5 c 0,0 2.252,-1.917 4,-2.5 z" stroke="#000000" stroke-width="0.5" stroke-linejoin="round" data-tooth="63" data-face="vestibular" id="tooth-63-vestibular"/>
  <path d="m 683.013,211.6 c 1.058,3.17 -1.024,5.158 -1,8.5 0.023,3.148 1.7,4.93 1,8 -0.486,2.128 -4.5,7 -4.5,7 l -7.5,-9 v -12 l 7.5,-9 c 0,0 3.917,4.753 4.5,6.5 z" stroke="#000000" stroke-width="0.5" stroke-linejoin="round" data-tooth="63" data-face="distal" id="tooth-63-distal"/>
  <path d="m 657.013,237.6 c 3.17,1.058 5.157,-1.024 8.5,-1 3.148,0.023 4.93,1.701 8,1 2.128,-0.486 5,-2.5 5,-2.5 l -8,-9.5 h -10 l -7.5,9.5 c 0,0 2.252,1.917 4,2.5 z" stroke="#000000" stroke-width="0.5" stroke-linejoin="round" data-tooth="63" data-face="palatina" id="tooth-63-palatina"/>
  <path d="m 648.313,212.1 c -1.058,3.17 1.024,5.158 1,8.5 -0.023,3.148 -1.701,4.93 -1,8 0.486,2.128 4.7,6.5 4.7,6.5 l 7.3,-9 v -11.5 l -7.3,-9.5 c 0,0 -4.117,5.253 -4.7,7 z" stroke="#000000" stroke-width="0.5" stroke-linejoin="round" data-tooth="63" data-face="mesial" id="tooth-63-mesial"/>
  <path d="M 662.000,138.204 C 660.553,138.131 659.766,138.424 658.759,138.765 C 657.751,139.105 657.151,139.112 655.957,140.246 C 654.763,141.380 652.682,143.314 651.595,145.569 C 650.507,147.823 649.887,150.565 649.433,153.773 C 648.980,156.982 648.700,162.172 648.873,164.820 C 649.047,167.468 649.607,168.109 650.474,169.663 C 651.341,171.217 652.482,172.665 654.076,174.145 C 655.670,175.626 658.498,177.701 660.039,178.548 C 661.580,179.395 661.787,179.749 663.321,179.228 C 664.855,178.708 667.470,177.034 669.244,175.426 C 671.019,173.819 672.866,171.397 673.967,169.583 C 675.068,167.768 675.468,166.621 675.848,164.540 C 676.228,162.459 676.402,159.664 676.248,157.095 C 676.095,154.527 675.648,151.492 674.927,149.131 C 674.207,146.769 673.173,144.581 671.926,142.927 C 670.678,141.273 669.098,139.992 667.443,139.205 C 665.789,138.418 663.448,138.278 662.000,138.204 Z" stroke="#000000" stroke-width="0.5" data-tooth="63" data-part="crown" id="tooth-63-crown"/>
  <path d="m 661.544,87.0035 c 6,0.5 11,52.9995 11,52.9995 0,0 -2,-3 -11,-3 -9,0 -10,3 -10,3 0,0 4,-53.4995 10,-52.9995 z" stroke="#000000" stroke-width="0.5" data-tooth="63" data-part="root" id="tooth-63-root"/>
</g>
<g id="tooth-64" data-tooth="64">
  <path d="m 726.98596,214.90188 h -10.7 v 11 h 10.7 z" stroke="#000000" stroke-width="0.5" data-tooth="64" data-face="oclusal" id="tooth-64-oclusal"/>
  <path d="m 713.013,202.9 c 3.17,-1.058 5.157,1.024 8.5,1 3.148,-0.023 4.93,-1.701 8,-1 2.128,0.486 5,2.5 5,2.5 l -8,9.5 h -10 l -7.5,-9.5 c 0,0 2.252,-1.917 4,-2.5 z" stroke="#000000" stroke-width="0.5" stroke-linejoin="round" data-tooth="64" data-face="vestibular" id="tooth-64-vestibular"/>
  <path d="m 739.013,211.9 c 1.058,3.17 -1.024,5.158 -1,8.5 0.023,3.148 1.7,4.93 1,8 -0.486,2.128 -4.5,7 -4.5,7 l -7.5,-9 v -12 l 7.5,-9 c 0,0 3.917,4.752 4.5,6.5 z" stroke="#000000" stroke-width="0.5" stroke-linejoin="round" data-tooth="64" data-face="distal" id="tooth-64-distal"/>
  <path d="m 713.013,237.9 c 3.17,1.058 5.157,-1.024 8.5,-1 3.148,0.023 4.93,1.701 8,1 2.128,-0.486 5,-2.5 5,-2.5 l -8,-9.5 h -10 l -7.5,9.5 c 0,0 2.252,1.917 4,2.5 z" stroke="#000000" stroke-width="0.5" stroke-linejoin="round" data-tooth="64" data-face="palatina" id="tooth-64-palatina"/>
  <path d="m 704.313,212.4 c -1.058,3.17 1.024,5.158 1,8.5 -0.023,3.148 -1.701,4.93 -1,8 0.486,2.128 4.7,6.5 4.7,6.5 l 7.3,-9 v -11.5 l -7.3,-9.5 c 0,0 -4.117,5.252 -4.7,7 z" stroke="#000000" stroke-width="0.5" stroke-linejoin="round" data-tooth="64" data-face="mesial" id="tooth-64-mesial"/>
  <path d="m 717.1005,140.24751 c 19.5,0 16.5,15.5 16.5,19.5 0,4 -0.334,14.436 -2.834,15.936 -2.5,1.5 -3.666,1.564 -12.666,1.564 -9,0 -10.834,0.936 -13.834,-1.564 -3,-2.5 -2.666,-15.936 -2.666,-15.936 0,0 -4,-19.5 15.5,-19.5 z" stroke="#000000" stroke-width="0.5" data-tooth="64" data-part="crown" id="tooth-64-crown"/>
  <path d="m 721.60049,110.55026 c -0.5,5 -3,15.5 -4.5,15 -1.5,-0.5 -2,-9.262 -2,-17.5 0,-6 3.5,-17.000201 6.5,-16.000201 3,1 0.5,13.500201 0,18.500201 z" stroke="#000000" stroke-width="0.5" data-tooth="64" data-part="root" id="tooth-64-root-1"/>
  <path d="m 731.25827,109.09798 0.5,34 c 0,0 -3,-5.5 -15,-5 -12,0.5 -13,5 -13,5 v -31 c 0,0 1,-21.500198 6.5,-17.500198 3.907,2.8412 2.5,14.500198 2.5,14.500198 0,0 -1.5,19 5,19 7.517,0 4.708,-36.791798 11.5,-30.000198 2,1.999998 2,11.000198 2,11.000198 z" stroke="#000000" stroke-width="0.5" data-tooth="64" data-part="root" id="tooth-64-root-2"/>
</g>
<g id="tooth-65" data-tooth="65">
  <path d="m 776.98238,214.31296 h -10.7 v 11 h 10.7 z" stroke="#000000" stroke-width="0.5" data-tooth="65" data-face="oclusal" id="tooth-65-oclusal"/>
  <path d="m 763.013,202.3 c 3.17,-1.058 5.157,1.024 8.5,1 3.148,-0.023 4.93,-1.701 8,-1 2.128,0.486 5,2.5 5,2.5 l -8,9.5 h -10 l -7.5,-9.5 c 0,0 2.252,-1.917 4,-2.5 z" stroke="#000000" stroke-width="0.5" stroke-linejoin="round" data-tooth="65" data-face="vestibular" id="tooth-65-vestibular"/>
  <path d="m 789.013,211.3 c 1.058,3.17 -1.024,5.158 -1,8.5 0.023,3.148 1.7,4.93 1,8 -0.486,2.128 -4.5,7 -4.5,7 l -7.5,-9 v -12 l 7.5,-9 c 0,0 3.917,4.753 4.5,6.5 z" stroke="#000000" stroke-width="0.5" stroke-linejoin="round" data-tooth="65" data-face="distal" id="tooth-65-distal"/>
  <path d="m 763.013,237.3 c 3.17,1.058 5.157,-1.024 8.5,-1 3.148,0.023 4.93,1.701 8,1 2.128,-0.486 5,-2.5 5,-2.5 l -8,-9.5 h -10 l -7.5,9.5 c 0,0 2.252,1.917 4,2.5 z" stroke="#000000" stroke-width="0.5" stroke-linejoin="round" data-tooth="65" data-face="palatina" id="tooth-65-palatina"/>
  <path d="m 754.313,211.8 c -1.058,3.17 1.024,5.158 1,8.5 -0.023,3.148 -1.701,4.93 -1,8 0.486,2.128 4.7,6.5 4.7,6.5 l 7.3,-9 v -11.5 l -7.3,-9.5 c 0,0 -4.117,5.253 -4.7,7 z" stroke="#000000" stroke-width="0.5" stroke-linejoin="round" data-tooth="65" data-face="mesial" id="tooth-65-mesial"/>
  <path d="m 770.52248,141.03652 c 15.834,-0.936 16.5,15.5 16.5,19.5 0,4 0.166,14.436 -2.334,15.936 -2.5,1.5 -4.166,1.564 -13.166,1.564 -9,0 -8.834,0.936 -11.834,-1.564 -3,-2.5 -3,-15 -3,-15 0,0 -2,-19.5 13.834,-20.436 z" stroke="#000000" stroke-width="0.5" data-tooth="65" data-part="crown" id="tooth-65-crown"/>
  <path d="m 775.77201,111.77873 c -0.5,5 -3,15.5 -4.5,15 -1.5,-0.5 -2,-9.262 -2,-17.5 0,-6 3.5,-17.000202 6.5,-16.000202 3,1 0.5,13.500202 0,18.500202 z" stroke="#000000" stroke-width="0.5" data-tooth="65" data-part="root" id="tooth-65-root-1"/>
  <path d="m 785.1903,110.09825 0.5,34 c 0,0 -3,-5.5 -15,-5 -12,0.5 -13,5 -13,5 v -31 c 0,0 1,-21.500192 6.5,-17.500192 3.907,2.8412 2.5,14.500192 2.5,14.500192 0,0 -1.5,19 5,19 7.517,0 4.708,-36.791792 11.5,-30.000192 2,1.999992 2,11.000192 2,11.000192 z" stroke="#000000" stroke-width="0.5" data-tooth="65" data-part="root" id="tooth-65-root-2"/>
</g>
<g id="tooth-71" data-tooth="71">
  <path d="m 557.99452,348.59159 h -10.7 v 11 h 10.7 z" stroke="#000000" stroke-width="0.5" data-tooth="71" data-face="incisal" id="tooth-71-incisal"/>
  <path d="m 544.013,336.6 c 3.17,-1.058 5.157,1.024 8.5,1 3.148,-0.023 4.93,-1.701 8,-1 2.128,0.486 5,2.5 5,2.5 l -8,9.5 h -10 l -7.5,-9.5 c 0,0 2.252,-1.917 4,-2.5 z" stroke="#000000" stroke-width="0.5" stroke-linejoin="round" data-tooth="71" data-face="lingual" id="tooth-71-lingual"/>
  <path d="m 570.013,345.6 c 1.058,3.17 -1.024,5.158 -1,8.5 0.023,3.148 1.7,4.93 1,8 -0.486,2.128 -4.5,7 -4.5,7 l -7.5,-9 v -12 l 7.5,-9 c 0,0 3.917,4.752 4.5,6.5 z" stroke="#000000" stroke-width="0.5" stroke-linejoin="round" data-tooth="71" data-face="distal" id="tooth-71-distal"/>
  <path d="m 544.013,371.6 c 3.17,1.058 5.157,-1.024 8.5,-1 3.148,0.023 4.93,1.701 8,1 2.128,-0.486 5,-2.5 5,-2.5 l -8,-9.5 h -10 l -7.5,9.5 c 0,0 2.252,1.917 4,2.5 z" stroke="#000000" stroke-width="0.5" stroke-linejoin="round" data-tooth="71" data-face="vestibular" id="tooth-71-vestibular"/>
  <path d="m 535.313,346.1 c -1.058,3.17 1.024,5.158 1,8.5 -0.023,3.148 -1.701,4.93 -1,8 0.486,2.128 4.7,6.5 4.7,6.5 l 7.3,-9 v -11.5 l -7.3,-9.5 c 0,0 -4.117,5.252 -4.7,7 z" stroke="#000000" stroke-width="0.5" stroke-linejoin="round" data-tooth="71" data-face="mesial" id="tooth-71-mesial"/>
  <path d="m 564.893,394.499 c -0.302,-3.004 -0.89,-5.404 -10.945,-5.498 -5.676,-0.052 -10.301,1.536 -11.055,2.998 -1.981,3.843 0,12 0,22.5 0,5.5 6.11,10.157 11.055,10 6.227,-0.198 10.029,-3.284 10.445,-9.5 0.556,-8.305 1.056,-14.983 0.5,-20.5 z" stroke="#000000" stroke-width="0.5" data-tooth="71" data-part="crown" id="tooth-71-crown"/>
  <path d="m 553.893,475.999 c -6,-0.5 -9.258,-52.499 -9.258,-52.499 0,0 0.258,2.499 9.258,2.499 9,0 10,-3 10,-3 0,0 -4,53.5 -10,53 z" stroke="#000000" stroke-width="0.5" data-tooth="71" data-part="root" id="tooth-71-root"/>
</g>
<g id="tooth-72" data-tooth="72">
  <path d="m 614.00717,348.90326 h -10.7 v 11 h 10.7 z" stroke="#000000" stroke-width="0.5" data-tooth="72" data-face="incisal" id="tooth-72-incisal"/>
  <path d="m 600.013,336.9 c 3.17,-1.058 5.157,1.024 8.5,1 3.148,-0.023 4.93,-1.701 8,-1 2.128,0.486 5,2.5 5,2.5 l -8,9.5 h -10 l -7.5,-9.5 c 0,0 2.252,-1.917 4,-2.5 z" stroke="#000000" stroke-width="0.5" stroke-linejoin="round" data-tooth="72" data-face="lingual" id="tooth-72-lingual"/>
  <path d="m 626.013,345.9 c 1.058,3.17 -1.024,5.158 -1,8.5 0.023,3.148 1.7,4.93 1,8 -0.486,2.128 -4.5,7 -4.5,7 l -7.5,-9 v -12 l 7.5,-9 c 0,0 3.917,4.752 4.5,6.5 z" stroke="#000000" stroke-width="0.5" stroke-linejoin="round" data-tooth="72" data-face="distal" id="tooth-72-distal"/>
  <path d="m 600.013,371.9 c 3.17,1.058 5.157,-1.024 8.5,-1 3.148,0.023 4.93,1.701 8,1 2.128,-0.486 5,-2.5 5,-2.5 l -8,-9.5 h -10 l -7.5,9.5 c 0,0 2.252,1.917 4,2.5 z" stroke="#000000" stroke-width="0.5" stroke-linejoin="round" data-tooth="72" data-face="vestibular" id="tooth-72-vestibular"/>
  <path d="m 591.313,346.4 c -1.058,3.17 1.024,5.158 1,8.5 -0.023,3.148 -1.701,4.93 -1,8 0.486,2.128 4.7,6.5 4.7,6.5 l 7.3,-9 v -11.5 l -7.3,-9.5 c 0,0 -4.117,5.252 -4.7,7 z" stroke="#000000" stroke-width="0.5" stroke-linejoin="round" data-tooth="72" data-face="mesial" id="tooth-72-mesial"/>
  <path d="m 620.135,394.5 c -0.302,-3.004 -0.89,-5.405 -10.945,-5.498 -5.676,-0.052 -10.301,1.535 -11.055,2.998 -1.981,3.843 0,12 0,22.5 0,5.5 6.11,10.157 11.055,10 6.227,-0.198 10.029,-3.284 10.445,-9.5 0.556,-8.305 1.056,-14.983 0.5,-20.5 z" stroke="#000000" stroke-width="0.5" data-tooth="72" data-part="crown" id="tooth-72-crown"/>
  <path d="m 599.635,423 c 0,0 3.5,52.5 9.5,53 6,0.5 9,-53 9,-53 0,0 0,3 -9,3 -9,0 -9.5,-3 -9.5,-3 z" stroke="#000000" stroke-width="0.5" data-tooth="72" data-part="root" id="tooth-72-root"/>
</g>
<g id="tooth-73" data-tooth="73">
  <path d="m 671.00591,348.89206 h -10.7 v 11 h 10.7 z" stroke="#000000" stroke-width="0.5" data-tooth="73" data-face="incisal" id="tooth-73-incisal"/>
  <path d="m 657.013,336.9 c 3.17,-1.058 5.157,1.024 8.5,1 3.148,-0.023 4.93,-1.701 8,-1 2.128,0.486 5,2.5 5,2.5 l -8,9.5 h -10 l -7.5,-9.5 c 0,0 2.252,-1.917 4,-2.5 z" stroke="#000000" stroke-width="0.5" stroke-linejoin="round" data-tooth="73" data-face="lingual" id="tooth-73-lingual"/>
  <path d="m 683.013,345.9 c 1.058,3.17 -1.024,5.158 -1,8.5 0.023,3.148 1.7,4.93 1,8 -0.486,2.128 -4.5,7 -4.5,7 l -7.5,-9 v -12 l 7.5,-9 c 0,0 3.917,4.752 4.5,6.5 z" stroke="#000000" stroke-width="0.5" stroke-linejoin="round" data-tooth="73" data-face="distal" id="tooth-73-distal"/>
  <path d="m 657.013,371.9 c 3.17,1.058 5.157,-1.024 8.5,-1 3.148,0.023 4.93,1.701 8,1 2.128,-0.486 5,-2.5 5,-2.5 l -8,-9.5 h -10 l -7.5,9.5 c 0,0 2.252,1.917 4,2.5 z" stroke="#000000" stroke-width="0.5" stroke-linejoin="round" data-tooth="73" data-face="vestibular" id="tooth-73-vestibular"/>
  <path d="m 648.313,346.4 c -1.058,3.17 1.024,5.158 1,8.5 -0.023,3.148 -1.701,4.93 -1,8 0.486,2.128 4.7,6.5 4.7,6.5 l 7.3,-9 v -11.5 l -7.3,-9.5 c 0,0 -4.117,5.252 -4.7,7 z" stroke="#000000" stroke-width="0.5" stroke-linejoin="round" data-tooth="73" data-face="mesial" id="tooth-73-mesial"/>
  <path d="M 661.849,386.762 C 660.315,387.282 657.733,388.956 655.966,390.564 C 654.198,392.171 652.344,394.593 651.243,396.407 C 650.142,398.222 649.742,399.369 649.362,401.450 C 648.982,403.531 648.775,406.220 648.962,408.895 C 649.149,411.569 649.716,415.078 650.483,417.500 C 651.250,419.921 652.350,421.876 653.564,423.423 C 654.778,424.971 656.166,426.058 657.767,426.785 C 659.367,427.512 661.722,427.712 663.170,427.786 C 664.617,427.859 665.438,427.566 666.451,427.225 C 667.465,426.885 668.059,426.878 669.253,425.744 C 670.447,424.610 672.528,422.676 673.615,420.421 C 674.703,418.167 675.323,415.425 675.777,412.216 C 676.230,409.008 676.510,403.818 676.337,401.170 C 676.163,398.522 675.610,397.888 674.736,396.327 C 673.862,394.766 672.688,393.285 671.094,391.804 C 669.500,390.324 666.712,388.282 665.171,387.442 C 663.630,386.601 663.383,386.241 661.849,386.762 Z" stroke="#000000" stroke-width="0.5" data-tooth="73" data-part="crown" id="tooth-73-crown"/>
  <path d="m 654.135,426.027 c 0,0 3.571,52.499 9.571,52.999 6,0.5 8.429,-52.999 8.429,-52.999 0,0 0.571,2.999 -8.429,2.999 -9,0 -9.571,-2.999 -9.571,-2.999 z" stroke="#000000" stroke-width="0.5" data-tooth="73" data-part="root" id="tooth-73-root"/>
</g>
<g id="tooth-74" data-tooth="74">
  <path d="m 726.96219,349.1932 h -10.7 v 11 h 10.7 z" stroke="#000000" stroke-width="0.5" data-tooth="74" data-face="oclusal" id="tooth-74-oclusal"/>
  <path d="m 713.013,337.2 c 3.17,-1.058 5.157,1.024 8.5,1 3.148,-0.023 4.93,-1.701 8,-1 2.128,0.486 5,2.5 5,2.5 l -8,9.5 h -10 l -7.5,-9.5 c 0,0 2.252,-1.917 4,-2.5 z" stroke="#000000" stroke-width="0.5" stroke-linejoin="round" data-tooth="74" data-face="lingual" id="tooth-74-lingual"/>
  <path d="m 739.013,346.2 c 1.058,3.17 -1.024,5.158 -1,8.5 0.023,3.148 1.7,4.93 1,8 -0.486,2.128 -4.5,7 -4.5,7 l -7.5,-9 v -12 l 7.5,-9 c 0,0 3.917,4.752 4.5,6.5 z" stroke="#000000" stroke-width="0.5" stroke-linejoin="round" data-tooth="74" data-face="distal" id="tooth-74-distal"/>
  <path d="m 713.013,372.2 c 3.17,1.058 5.157,-1.024 8.5,-1 3.148,0.023 4.93,1.701 8,1 2.128,-0.486 5,-2.5 5,-2.5 l -8,-9.5 h -10 l -7.5,9.5 c 0,0 2.252,1.917 4,2.5 z" stroke="#000000" stroke-width="0.5" stroke-linejoin="round" data-tooth="74" data-face="vestibular" id="tooth-74-vestibular"/>
  <path d="m 704.313,346.7 c -1.058,3.17 1.024,5.158 1,8.5 -0.023,3.148 -1.701,4.93 -1,8 0.486,2.128 4.7,6.5 4.7,6.5 l 7.3,-9 v -11.5 l -7.3,-9.5 c 0,0 -4.117,5.252 -4.7,7 z" stroke="#000000" stroke-width="0.5" stroke-linejoin="round" data-tooth="74" data-face="mesial" id="tooth-74-mesial"/>
  <path d="m 732.69678,395.25592 c -0.302,-4.628 -3.5,-5.551 -13.555,-5.694 -5.676,-0.082 -14.141,1.22 -14.5,3.694 -0.945,6.5 0,13.306 0,23.806 0,5.194 9.555,8.656 14.5,8.5 6.227,-0.198 13.084,-2.284 13.5,-8.5 0.555,-8.306 0.611,-13.306 0.055,-21.806 z" stroke="#000000" stroke-width="0.5" data-tooth="74" data-part="crown" id="tooth-74-crown"/>
  <path d="m 718.79404,427.84051 c 8,0 12,-3 12,-3 0,0 3.5,54 -5,52 -4.158,-0.978 -0.999,-34.5 -7,-35 -6,-0.5 2.001,31 -5.5,33.5 -7.5,2.5 -4,-33 -6,-50.5 0,0 1.5,3 11.5,3 z" stroke="#000000" stroke-width="0.5" data-tooth="74" data-part="root" id="tooth-74-root"/>
</g>
<g id="tooth-75" data-tooth="75">
  <path d="m 778.97592,348.89054 h -10.7 v 11 h 10.7 z" stroke="#000000" stroke-width="0.5" data-tooth="75" data-face="oclusal" id="tooth-75-oclusal"/>
  <path d="m 765.013,336.9 c 3.17,-1.058 5.157,1.024 8.5,1 3.148,-0.023 4.93,-1.701 8,-1 2.128,0.486 5,2.5 5,2.5 l -8,9.5 h -10 l -7.5,-9.5 c 0,0 2.252,-1.917 4,-2.5 z" stroke="#000000" stroke-width="0.5" stroke-linejoin="round" data-tooth="75" data-face="lingual" id="tooth-75-lingual"/>
  <path d="m 791.013,345.9 c 1.058,3.17 -1.024,5.158 -1,8.5 0.023,3.148 1.7,4.93 1,8 -0.486,2.128 -4.5,7 -4.5,7 l -7.5,-9 v -12 l 7.5,-9 c 0,0 3.917,4.752 4.5,6.5 z" stroke="#000000" stroke-width="0.5" stroke-linejoin="round" data-tooth="75" data-face="distal" id="tooth-75-distal"/>
  <path d="m 765.013,371.9 c 3.17,1.058 5.157,-1.024 8.5,-1 3.148,0.023 4.93,1.701 8,1 2.128,-0.486 5,-2.5 5,-2.5 l -8,-9.5 h -10 l -7.5,9.5 c 0,0 2.252,1.917 4,2.5 z" stroke="#000000" stroke-width="0.5" stroke-linejoin="round" data-tooth="75" data-face="vestibular" id="tooth-75-vestibular"/>
  <path d="m 756.313,346.4 c -1.058,3.17 1.024,5.158 1,8.5 -0.023,3.148 -1.701,4.93 -1,8 0.486,2.128 4.7,6.5 4.7,6.5 l 7.3,-9 v -11.5 l -7.3,-9.5 c 0,0 -4.117,5.252 -4.7,7 z" stroke="#000000" stroke-width="0.5" stroke-linejoin="round" data-tooth="75" data-face="mesial" id="tooth-75-mesial"/>
  <path d="m 785.90323,395.48701 c -0.302,-4.628 -3.5,-5.551 -13.555,-5.694 -5.676,-0.082 -14.141,1.22 -14.5,3.694 -0.945,6.5 0,13.306 0,23.806 0,5.194 9.555,8.656 14.5,8.5 6.227,-0.198 13.084,-2.284 13.5,-8.5 0.555,-8.306 0.611,-13.306 0.055,-21.806 z" stroke="#000000" stroke-width="0.5" data-tooth="75" data-part="crown" id="tooth-75-crown"/>
  <path d="m 771.95548,428.17024 c 8,0 12,-3 12,-3 0,0 3.5,54 -5,52 -4.158,-0.978 -1,-34.5 -7,-35 -6,-0.5 2,31 -5.5,33.5 -7.5,2.5 -4,-33 -6,-50.5 0,0 1.5,3 11.5,3 z" stroke="#000000" stroke-width="0.5" data-tooth="75" data-part="root" id="tooth-75-root"/>
</g>
<g id="tooth-81" data-tooth="81">
  <path d="m 478.9978,348.30159 h -10.7 v 11 h 10.7 z" stroke="#000000" stroke-width="0.5" data-tooth="81" data-face="incisal" id="tooth-81-incisal"/>
  <path d="m 465.013,336.3 c 3.17,-1.058 5.157,1.024 8.5,1 3.148,-0.023 4.93,-1.701 8,-1 2.128,0.486 5,2.5 5,2.5 l -8,9.5 h -10 l -7.5,-9.5 c 0,0 2.252,-1.917 4,-2.5 z" stroke="#000000" stroke-width="0.5" stroke-linejoin="round" data-tooth="81" data-face="lingual" id="tooth-81-lingual"/>
  <path d="m 491.013,345.3 c 1.058,3.17 -1.024,5.158 -1,8.5 0.023,3.148 1.7,4.93 1,8 -0.486,2.128 -4.5,7 -4.5,7 l -7.5,-9 v -12 l 7.5,-9 c 0,0 3.917,4.753 4.5,6.5 z" stroke="#000000" stroke-width="0.5" stroke-linejoin="round" data-tooth="81" data-face="mesial" id="tooth-81-mesial"/>
  <path d="m 465.013,371.3 c 3.17,1.058 5.157,-1.024 8.5,-1 3.148,0.023 4.93,1.701 8,1 2.128,-0.486 5,-2.5 5,-2.5 l -8,-9.5 h -10 l -7.5,9.5 c 0,0 2.252,1.917 4,2.5 z" stroke="#000000" stroke-width="0.5" stroke-linejoin="round" data-tooth="81" data-face="vestibular" id="tooth-81-vestibular"/>
  <path d="m 456.313,345.8 c -1.058,3.17 1.024,5.158 1,8.5 -0.023,3.148 -1.701,4.93 -1,8 0.486,2.128 4.7,6.5 4.7,6.5 l 7.3,-9 v -11.5 l -7.3,-9.5 c 0,0 -4.117,5.253 -4.7,7 z" stroke="#000000" stroke-width="0.5" stroke-linejoin="round" data-tooth="81" data-face="distal" id="tooth-81-distal"/>
  <path d="m 461.921,394.499 c 0.302,-3.004 0.89,-5.404 10.945,-5.498 5.676,-0.052 10.301,1.536 11.055,2.998 1.981,3.843 0,12 0,22.5 0,5.5 -6.11,10.157 -11.055,10 -6.227,-0.198 -10.029,-3.284 -10.445,-9.5 -0.556,-8.305 -1.056,-14.983 -0.5,-20.5 z" stroke="#000000" stroke-width="0.5" data-tooth="81" data-part="crown" id="tooth-81-crown"/>
  <path d="m 472.921,475.999 c 6,-0.5 9.258,-52.499 9.258,-52.499 0,0 -0.258,2.499 -9.258,2.499 -9,0 -10,-3 -10,-3 0,0 4,53.5 10,53 z" stroke="#000000" stroke-width="0.5" data-tooth="81" data-part="root" id="tooth-81-root"/>
</g>
<g id="tooth-82" data-tooth="82">
  <path d="m 424.96797,348.61537 h -10.7 v 11 h 10.7 z" stroke="#000000" stroke-width="0.5" data-tooth="82" data-face="incisal" id="tooth-82-incisal"/>
  <path d="m 411.013,336.6 c 3.17,-1.058 5.157,1.024 8.5,1 3.148,-0.023 4.93,-1.701 8,-1 2.128,0.486 5,2.5 5,2.5 l -8,9.5 h -10 l -7.5,-9.5 c 0,0 2.252,-1.917 4,-2.5 z" stroke="#000000" stroke-width="0.5" stroke-linejoin="round" data-tooth="82" data-face="lingual" id="tooth-82-lingual"/>
  <path d="m 437.013,345.6 c 1.058,3.17 -1.024,5.158 -1,8.5 0.023,3.148 1.7,4.93 1,8 -0.486,2.128 -4.5,7 -4.5,7 l -7.5,-9 v -12 l 7.5,-9 c 0,0 3.917,4.752 4.5,6.5 z" stroke="#000000" stroke-width="0.5" stroke-linejoin="round" data-tooth="82" data-face="mesial" id="tooth-82-mesial"/>
  <path d="m 411.013,371.6 c 3.17,1.058 5.157,-1.024 8.5,-1 3.148,0.023 4.93,1.701 8,1 2.128,-0.486 5,-2.5 5,-2.5 l -8,-9.5 h -10 l -7.5,9.5 c 0,0 2.252,1.917 4,2.5 z" stroke="#000000" stroke-width="0.5" stroke-linejoin="round" data-tooth="82" data-face="vestibular" id="tooth-82-vestibular"/>
  <path d="m 402.313,346.1 c -1.058,3.17 1.024,5.158 1,8.5 -0.023,3.148 -1.701,4.93 -1,8 0.486,2.128 4.7,6.5 4.7,6.5 l 7.3,-9 v -11.5 l -7.3,-9.5 c 0,0 -4.117,5.252 -4.7,7 z" stroke="#000000" stroke-width="0.5" stroke-linejoin="round" data-tooth="82" data-face="distal" id="tooth-82-distal"/>
  <path d="m 406.679,394.5 c 0.302,-3.004 0.89,-5.405 10.945,-5.498 5.676,-0.052 10.301,1.535 11.055,2.998 1.981,3.843 0,12 0,22.5 0,5.5 -6.11,10.157 -11.055,10 -6.227,-0.198 -10.029,-3.284 -10.445,-9.5 -0.556,-8.305 -1.056,-14.983 -0.5,-20.5 z" stroke="#000000" stroke-width="0.5" data-tooth="82" data-part="crown" id="tooth-82-crown"/>
  <path d="m 427.179,423 c 0,0 -3.5,52.5 -9.5,53 -6,0.5 -9,-53 -9,-53 0,0 0,3 9,3 9,0 9.5,-3 9.5,-3 z" stroke="#000000" stroke-width="0.5" data-tooth="82" data-part="root" id="tooth-82-root"/>
</g>
<g id="tooth-83" data-tooth="83">
  <path d="m 370.97485,348.89849 h -10.7 v 11 h 10.7 z" stroke="#000000" stroke-width="0.5" data-tooth="83" data-face="incisal" id="tooth-83-incisal"/>
  <path d="m 357.013,336.9 c 3.17,-1.058 5.157,1.024 8.5,1 3.148,-0.023 4.93,-1.701 8,-1 2.128,0.486 5,2.5 5,2.5 l -8,9.5 h -10 l -7.5,-9.5 c 0,0 2.252,-1.917 4,-2.5 z" stroke="#000000" stroke-width="0.5" stroke-linejoin="round" data-tooth="83" data-face="lingual" id="tooth-83-lingual"/>
  <path d="m 383.013,345.9 c 1.058,3.17 -1.024,5.158 -1,8.5 0.023,3.148 1.7,4.93 1,8 -0.486,2.128 -4.5,7 -4.5,7 l -7.5,-9 v -12 l 7.5,-9 c 0,0 3.917,4.752 4.5,6.5 z" stroke="#000000" stroke-width="0.5" stroke-linejoin="round" data-tooth="83" data-face="mesial" id="tooth-83-mesial"/>
  <path d="m 357.013,371.9 c 3.17,1.058 5.157,-1.024 8.5,-1 3.148,0.023 4.93,1.701 8,1 2.128,-0.486 5,-2.5 5,-2.5 l -8,-9.5 h -10 l -7.5,9.5 c 0,0 2.252,1.917 4,2.5 z" stroke="#000000" stroke-width="0.5" stroke-linejoin="round" data-tooth="83" data-face="vestibular" id="tooth-83-vestibular"/>
  <path d="m 348.313,346.4 c -1.058,3.17 1.024,5.158 1,8.5 -0.023,3.148 -1.701,4.93 -1,8 0.486,2.128 4.7,6.5 4.7,6.5 l 7.3,-9 v -11.5 l -7.3,-9.5 c 0,0 -4.117,5.252 -4.7,7 z" stroke="#000000" stroke-width="0.5" stroke-linejoin="round" data-tooth="83" data-face="distal" id="tooth-83-distal"/>
  <path d="M 364.925,386.762 C 363.391,386.241 363.151,386.595 361.603,387.442 C 360.056,388.289 357.234,390.364 355.640,391.845 C 354.046,393.325 352.905,394.773 352.038,396.327 C 351.171,397.881 350.611,398.522 350.437,401.170 C 350.264,403.818 350.544,409.008 350.997,412.216 C 351.451,415.425 352.071,418.167 353.159,420.421 C 354.246,422.676 356.327,424.610 357.521,425.744 C 358.715,426.878 359.309,426.885 360.323,427.225 C 361.336,427.566 362.157,427.859 363.604,427.786 C 365.052,427.712 367.406,427.512 369.007,426.785 C 370.608,426.058 371.962,425.077 373.210,423.423 C 374.457,421.769 375.724,419.281 376.491,416.859 C 377.259,414.438 377.659,411.463 377.812,408.895 C 377.966,406.326 377.792,403.531 377.412,401.450 C 377.032,399.369 376.632,398.222 375.531,396.407 C 374.430,394.593 372.576,392.171 370.808,390.564 C 369.041,388.956 366.459,387.282 364.925,386.762 Z" stroke="#000000" stroke-width="0.5" data-tooth="83" data-part="crown" id="tooth-83-crown"/>
  <path d="m 372.679,426.027 c 0,0 -3.571,52.499 -9.571,52.999 -6,0.5 -8.429,-52.999 -8.429,-52.999 0,0 -0.571,2.999 8.429,2.999 9,0 9.571,-2.999 9.571,-2.999 z" stroke="#000000" stroke-width="0.5" data-tooth="83" data-part="root" id="tooth-83-root"/>
</g>
<g id="tooth-84" data-tooth="84">
  <path d="m 314.98144,348.60484 h -10.7 v 11 h 10.7 z" stroke="#000000" stroke-width="0.5" data-tooth="84" data-face="oclusal" id="tooth-84-oclusal"/>
  <path d="m 301.013,336.6 c 3.17,-1.058 5.157,1.024 8.5,1 3.148,-0.023 4.93,-1.701 8,-1 2.128,0.486 5,2.5 5,2.5 l -8,9.5 h -10 l -7.5,-9.5 c 0,0 2.252,-1.917 4,-2.5 z" stroke="#000000" stroke-width="0.5" stroke-linejoin="round" data-tooth="84" data-face="lingual" id="tooth-84-lingual"/>
  <path d="m 327.013,345.6 c 1.058,3.17 -1.024,5.158 -1,8.5 0.023,3.148 1.7,4.93 1,8 -0.486,2.128 -4.5,7 -4.5,7 l -7.5,-9 v -12 l 7.5,-9 c 0,0 3.917,4.752 4.5,6.5 z" stroke="#000000" stroke-width="0.5" stroke-linejoin="round" data-tooth="84" data-face="mesial" id="tooth-84-mesial"/>
  <path d="m 301.013,371.6 c 3.17,1.058 5.157,-1.024 8.5,-1 3.148,0.023 4.93,1.701 8,1 2.128,-0.486 5,-2.5 5,-2.5 l -8,-9.5 h -10 l -7.5,9.5 c 0,0 2.252,1.917 4,2.5 z" stroke="#000000" stroke-width="0.5" stroke-linejoin="round" data-tooth="84" data-face="vestibular" id="tooth-84-vestibular"/>
  <path d="m 292.313,346.1 c -1.058,3.17 1.024,5.158 1,8.5 -0.023,3.148 -1.701,4.93 -1,8 0.486,2.128 4.7,6.5 4.7,6.5 l 7.3,-9 v -11.5 l -7.3,-9.5 c 0,0 -4.117,5.252 -4.7,7 z" stroke="#000000" stroke-width="0.5" stroke-linejoin="round" data-tooth="84" data-face="distal" id="tooth-84-distal"/>
  <path d="m 294.11721,395.67434 c 0.302,-4.628 3.5,-5.551 13.555,-5.694 5.676,-0.082 14.141,1.22 14.5,3.694 0.945,6.5 0,13.306 0,23.806 0,5.194 -9.555,8.656 -14.5,8.5 -6.227,-0.198 -13.084,-2.284 -13.5,-8.5 -0.555,-8.306 -0.611,-13.306 -0.055,-21.806 z" stroke="#000000" stroke-width="0.5" data-tooth="84" data-part="crown" id="tooth-84-crown"/>
  <path d="m 308.19892,428.20819 c -8,0 -12,-3 -12,-3 0,0 -3.5,54 5,52 4.158,-0.978 1,-34.5 7,-35 6,-0.5 -2,31 5.5,33.5 7.5,2.5 4,-33 6,-50.5 0,0 -1.5,3 -11.5,3 z" stroke="#000000" stroke-width="0.5" data-tooth="84" data-part="root" id="tooth-84-root"/>
</g>
<g id="tooth-85" data-tooth="85">
  <path d="m 262.98626,348.92998 h -10.7 v 11 h 10.7 z" stroke="#000000" stroke-width="0.5" data-tooth="85" data-face="oclusal" id="tooth-85-oclusal"/>
  <path d="m 249.013,336.9 c 3.17,-1.058 5.157,1.024 8.5,1 3.148,-0.023 4.93,-1.701 8,-1 2.128,0.486 5,2.5 5,2.5 l -8,9.5 h -10 l -7.5,-9.5 c 0,0 2.252,-1.917 4,-2.5 z" stroke="#000000" stroke-width="0.5" stroke-linejoin="round" data-tooth="85" data-face="lingual" id="tooth-85-lingual"/>
  <path d="m 275.013,345.9 c 1.058,3.17 -1.024,5.158 -1,8.5 0.023,3.148 1.7,4.93 1,8 -0.486,2.128 -4.5,7 -4.5,7 l -7.5,-9 v -12 l 7.5,-9 c 0,0 3.917,4.752 4.5,6.5 z" stroke="#000000" stroke-width="0.5" stroke-linejoin="round" data-tooth="85" data-face="mesial" id="tooth-85-mesial"/>
  <path d="m 249.013,371.9 c 3.17,1.058 5.157,-1.024 8.5,-1 3.148,0.023 4.93,1.701 8,1 2.128,-0.486 5,-2.5 5,-2.5 l -8,-9.5 h -10 l -7.5,9.5 c 0,0 2.252,1.917 4,2.5 z" stroke="#000000" stroke-width="0.5" stroke-linejoin="round" data-tooth="85" data-face="vestibular" id="tooth-85-vestibular"/>
  <path d="m 240.313,346.4 c -1.058,3.17 1.024,5.158 1,8.5 -0.023,3.148 -1.701,4.93 -1,8 0.486,2.128 4.7,6.5 4.7,6.5 l 7.3,-9 v -11.5 l -7.3,-9.5 c 0,0 -4.117,5.252 -4.7,7 z" stroke="#000000" stroke-width="0.5" stroke-linejoin="round" data-tooth="85" data-face="distal" id="tooth-85-distal"/>
  <path d="m 241.20938,395.53487 c 0.302,-4.628 3.5,-5.551 13.555,-5.694 5.676,-0.082 14.141,1.22 14.5,3.694 0.945,6.5 0,13.306 0,23.806 0,5.194 -9.555,8.656 -14.5,8.5 -6.227,-0.198 -13.084,-2.284 -13.5,-8.5 -0.555,-8.306 -0.611,-13.306 -0.055,-21.806 z" stroke="#000000" stroke-width="0.5" data-tooth="85" data-part="crown" id="tooth-85-crown"/>
  <path d="m 255.50253,428.18426 c -8,0 -12,-3 -12,-3 0,0 -3.5,54 5,52 4.158,-0.978 1,-34.5 7,-35 6,-0.5 -2,31 5.5,33.5 7.5,2.5 4,-33 6,-50.5 0,0 -1.5,3 -11.5,3 z" stroke="#000000" stroke-width="0.5" data-tooth="85" data-part="root" id="tooth-85-root"/>
</g>
</g></g></svg>